<svg xmlns="http://www.w3.org/2000/svg" xmlns:xlink="http://www.w3.org/1999/xlink" width="200" zoomAndPan="magnify" viewBox="0 0 150 67.92" height="80" preserveAspectRatio="xMidYMid meet" version="1.0"><defs><g/><clipPath id="ab440c1cf3"><rect x="0" width="120" y="0" height="52"/></clipPath><clipPath id="9287d84bc5"><path d="M 25 22 L 32 22 L 32 30 L 25 30 Z M 25 22 " clip-rule="nonzero"/></clipPath><clipPath id="81eeba8f42"><path d="M 25.804688 28.730469 L 27.792969 22.289062 L 31.371094 23.394531 L 29.382812 29.835938 Z M 25.804688 28.730469 " clip-rule="nonzero"/></clipPath><clipPath id="54cb7d2199"><path d="M 0.738281 1 L 6.492188 1 L 6.492188 7 L 0.738281 7 Z M 0.738281 1 " clip-rule="nonzero"/></clipPath><clipPath id="959d2da120"><path d="M 0.804688 6.730469 L 2.792969 0.289062 L 6.371094 1.394531 L 4.382812 7.835938 Z M 0.804688 6.730469 " clip-rule="nonzero"/></clipPath><clipPath id="8c0373a190"><path d="M 2.824219 0.1875 L 0.835938 6.628906 L 4.414062 7.734375 L 6.402344 1.292969 Z M 2.824219 0.1875 " clip-rule="nonzero"/></clipPath><clipPath id="d397fb02c2"><rect x="0" width="7" y="0" height="8"/></clipPath></defs><g transform="matrix(1, 0, 0, 1, 15, 4)"><g clip-path="url(#ab440c1cf3)"><g fill="#521e80" fill-opacity="1"><g transform="translate(0.892127, 40.725378)"><g><path d="M 3.609375 -29.171875 L 8.359375 -29.171875 L 8.359375 0 L 3.609375 0 Z M 12 -29.171875 C 13.238281 -29.171875 14.460938 -28.972656 15.671875 -28.578125 C 16.890625 -28.179688 17.976562 -27.585938 18.9375 -26.796875 C 19.90625 -26.003906 20.6875 -25.046875 21.28125 -23.921875 C 21.875 -22.804688 22.171875 -21.546875 22.171875 -20.140625 C 22.171875 -18.671875 21.914062 -17.332031 21.40625 -16.125 C 20.90625 -14.925781 20.207031 -13.914062 19.3125 -13.09375 C 18.414062 -12.28125 17.332031 -11.648438 16.0625 -11.203125 C 14.800781 -10.753906 13.40625 -10.53125 11.875 -10.53125 L 9.96875 -10.53125 L 9.96875 -14.015625 L 12.703125 -14.015625 C 13.285156 -14.015625 13.859375 -14.113281 14.421875 -14.3125 C 14.992188 -14.507812 15.515625 -14.832031 15.984375 -15.28125 C 16.460938 -15.726562 16.847656 -16.351562 17.140625 -17.15625 C 17.429688 -17.957031 17.578125 -18.953125 17.578125 -20.140625 C 17.578125 -20.617188 17.507812 -21.164062 17.375 -21.78125 C 17.238281 -22.40625 16.96875 -23 16.5625 -23.5625 C 16.15625 -24.132812 15.582031 -24.609375 14.84375 -24.984375 C 14.101562 -25.367188 13.125 -25.5625 11.90625 -25.5625 L 9.96875 -25.5625 L 9.96875 -29.171875 Z M 12 -29.171875 "/></g></g></g><g fill="#5c2e99" fill-opacity="1"><g transform="translate(24.844091, 40.725378)"><g><path d="M 8.546875 0 L 3.71875 0 L 3.71875 -29.171875 L 8.546875 -29.171875 Z M 8.546875 0 "/></g></g></g><g fill="#915dd6" fill-opacity="1"><g transform="translate(37.033814, 40.725378)"><g><path d="M 2.921875 -29.171875 L 8.359375 -29.171875 L 13.09375 -18.25 L 13.09375 -9.1875 L 8.90625 0 L 3.40625 0 L 10.8125 -14.171875 Z M 24.890625 -29.171875 L 17.015625 -14.171875 L 24.421875 0 L 18.921875 0 L 14.71875 -10.015625 L 14.71875 -19.03125 L 19.46875 -29.171875 Z M 24.890625 -29.171875 "/></g></g></g><g fill="#b974f4" fill-opacity="1"><g transform="translate(64.820165, 40.725378)"><g><path d="M 18.4375 -29.171875 L 23.875 -29.171875 L 15.203125 -11.875 L 15.203125 0 L 10.375 0 L 10.375 -9.734375 Z M 7.5625 -29.171875 L 11.953125 -17.8125 L 9.8125 -12.625 L 2.140625 -29.171875 Z M 7.5625 -29.171875 "/></g></g></g><g fill="#d29dff" fill-opacity="1"><g transform="translate(90.741138, 40.725378)"><g><path d="M 19.90625 -29.171875 L 24.734375 -29.171875 L 24.734375 0 L 19.90625 0 L 10.09375 -17.25 L 10.09375 -26.359375 L 19.90625 -9.0625 Z M 3.640625 0 L 3.640625 -29.171875 L 8.46875 -29.171875 L 8.46875 0 Z M 3.640625 0 "/></g></g></g></g></g><g clip-path="url(#9287d84bc5)"><g clip-path="url(#81eeba8f42)"><g transform="matrix(1, 0, 0, 1, 25, 22)"><g clip-path="url(#d397fb02c2)"><g clip-path="url(#54cb7d2199)"><g clip-path="url(#959d2da120)"><g clip-path="url(#8c0373a190)"><path fill="#521e80" d="M 5.316406 4.347656 L 6.269531 1.253906 C 4.367188 0.667969 2.347656 1.734375 1.761719 3.636719 L 0.804688 6.726562 C 2.710938 7.316406 4.726562 6.25 5.316406 4.347656 Z M 5.316406 4.347656 " fill-opacity="1" fill-rule="nonzero"/></g></g></g></g></g></g></g></svg>